<?xml version="1.0" encoding="utf-8"?>
<!-- Generator: Adobe Illustrator 25.0.0, SVG Export Plug-In . SVG Version: 6.00 Build 0)  -->
<svg version="1.1" id="Layer_1" xmlns="http://www.w3.org/2000/svg" xmlns:xlink="http://www.w3.org/1999/xlink" x="0px" y="0px"
	 viewBox="0 0 32 32" style="enable-background:new 0 0 32 32;" xml:space="preserve">
<style type="text/css">
	.st0{fill:#4EC4CE;}
</style>
<g>
	<path class="st0" d="M18.06,9.52c-0.07-0.14-0.17-0.15-0.28-0.04c-0.12,0.11-0.22,0.29-0.31,0.53c-0.09,0.24-0.16,0.51-0.21,0.83
		c-0.04,0.28-0.04,0.54,0.01,0.78c0,0.02,0.01,0.03,0.01,0.05c0,0.01,0.01,0.03,0.01,0.04l0,0c0.08,0.58,0.1,1.22,0.32,1.79
		c0.11,0.31,0.25,0.61,0.4,0.89c0.1-0.5,0.18-0.98,0.23-1.44c0.1-0.77,0.13-1.46,0.11-2.06C18.32,10.28,18.22,9.82,18.06,9.52z"/>
	<path class="st0" d="M25.94,9.13c-0.23-0.52-0.51-0.95-0.83-1.3c-0.32-0.35-0.68-0.58-1.08-0.68c-0.4-0.1-0.82-0.04-1.27,0.2
		c-0.32,0.27-0.55,0.61-0.67,1.03c-0.13,0.42-0.18,0.89-0.16,1.4c0.02,0.51,0.11,1.05,0.26,1.63c0.15,0.57,0.34,1.15,0.56,1.72
		c0.22,0.57,0.46,1.13,0.71,1.68c0.26,0.55,0.52,1.04,0.77,1.49c0.56-0.34,1.01-0.7,1.35-1.1c0.34-0.4,0.6-0.83,0.78-1.29
		c0.18-0.46,0.27-0.96,0.27-1.48c0.01-0.53-0.05-1.07-0.16-1.65C26.35,10.2,26.17,9.65,25.94,9.13z"/>
	<path class="st0" d="M16,0.61C7.5,0.61,0.61,7.5,0.61,16S7.5,31.39,16,31.39c8.5,0,15.39-6.89,15.39-15.39S24.5,0.61,16,0.61z
		 M16,15.97c0,0.02,0,0.04,0.01,0.05C16,16.01,16,15.99,16,15.97L16,15.97z M26,15.43c-0.4,0.46-0.92,0.87-1.57,1.25
		c0.03,0.04,0.05,0.08,0.08,0.13c0.02,0.04,0.05,0.08,0.07,0.11c0.18,0.32,0.31,0.55,0.39,0.67c0.08,0.13,0.14,0.23,0.18,0.31
		c0.04,0.08,0.08,0.16,0.13,0.25c0.04,0.09,0.11,0.26,0.21,0.49c0.22,0.53,0.42,1.09,0.58,1.66c0.16,0.58,0.23,1.14,0.21,1.7
		c-0.02,0.56-0.16,1.1-0.42,1.61c-0.26,0.51-0.69,0.96-1.29,1.35c-0.32,0.21-0.64,0.34-0.94,0.39c-0.31,0.05-0.6,0.05-0.86-0.01
		c-0.42-0.08-0.83-0.27-1.23-0.55c-0.4-0.28-0.72-0.62-0.98-1.03c-0.25-0.41-0.41-0.85-0.47-1.33c-0.06-0.48,0.02-0.96,0.26-1.42
		c0.13-0.24,0.28-0.42,0.45-0.56c0.17-0.13,0.34-0.23,0.49-0.3c0.18-0.07,0.38-0.1,0.59-0.1l0.04,0.36
		c-0.17,0.02-0.33,0.05-0.48,0.11c-0.13,0.07-0.25,0.17-0.39,0.29c-0.13,0.13-0.24,0.31-0.33,0.55c-0.14,0.38-0.18,0.76-0.1,1.15
		c0.07,0.39,0.21,0.76,0.42,1.09c0.21,0.34,0.47,0.62,0.79,0.86c0.31,0.24,0.65,0.4,1.02,0.48c0.2,0.04,0.38,0.05,0.56,0.02
		c0.18-0.03,0.36-0.11,0.56-0.25c0.38-0.24,0.44-0.87,0.19-1.91c-0.25-1.04-0.87-2.54-1.85-4.52c-0.08-0.15-0.16-0.31-0.23-0.47
		c-0.07-0.16-0.15-0.32-0.23-0.47c-0.76,0-1.43-0.15-2.02-0.46c-0.26-0.14-0.51-0.29-0.73-0.47c-0.05,0.16-0.11,0.33-0.17,0.5
		c-0.35,0.99-0.77,1.97-1.27,2.93c-0.5,0.96-1.04,1.82-1.63,2.58c-0.59,0.76-1.21,1.38-1.87,1.86c-0.66,0.48-1.32,0.74-1.99,0.78
		c-0.64,0.03-1.17-0.15-1.58-0.53c-0.41-0.38-0.73-0.9-0.96-1.55c-0.23-0.66-0.4-1.43-0.49-2.3c-0.1-0.88-0.16-1.79-0.19-2.73
		c-0.03-0.94-0.03-1.9-0.01-2.86c0.02-0.96,0.03-1.85,0.02-2.68c-0.01-0.83-0.04-1.56-0.09-2.2C8.8,9.56,8.68,9.09,8.5,8.78H8.48
		C7.45,9.2,6.7,9.85,6.22,10.73c-0.48,0.88-0.79,1.95-0.94,3.21c-0.08,0.83-0.08,1.52,0.02,2.08c0.1,0.56,0.24,1.03,0.44,1.41
		c0.2,0.38,0.42,0.67,0.66,0.87c0.25,0.2,0.48,0.36,0.69,0.45c0.22,0.1,0.39,0.16,0.54,0.18c0.11,0.02,0.18,0.03,0.19,0.03
		c0.07,0,0.1,0.06,0.09,0.17c-0.01,0.11-0.07,0.21-0.2,0.29c-0.31-0.04-0.62-0.15-0.92-0.32c-0.27-0.15-0.55-0.38-0.84-0.68
		c-0.3-0.3-0.56-0.73-0.8-1.29c-0.13-0.32-0.23-0.77-0.31-1.34c-0.08-0.58-0.09-1.21-0.03-1.91c0.04-0.55,0.14-1.11,0.31-1.69
		c0.16-0.58,0.39-1.13,0.69-1.66c0.3-0.53,0.69-1,1.17-1.43c0.48-0.43,1.05-0.75,1.72-0.98c0.95-0.14,1.68,0.4,2.19,1.61
		c0.5,1.21,0.46,4.1-0.13,8.67c-0.81,4.28-0.39,6.37,1.26,6.26c0.51,0.01,0.99-0.16,1.47-0.53c0.48-0.36,0.93-0.85,1.35-1.46
		c0.43-0.61,0.83-1.31,1.2-2.11c0.37-0.8,0.7-1.63,0.99-2.51c0.29-0.88,0.53-1.76,0.74-2.64c0.03-0.14,0.06-0.28,0.09-0.41
		c-0.22-0.36-0.41-0.74-0.57-1.14c-0.24-0.63-0.48-1.29-0.57-1.97c-0.08-0.22-0.11-0.5-0.09-0.84c0.02-0.34,0.09-0.67,0.2-0.98
		c0.11-0.31,0.27-0.56,0.48-0.77c0.21-0.2,0.46-0.28,0.76-0.24c0.59-0.01,1.03,0.2,1.32,0.63c0.29,0.43,0.47,1.02,0.51,1.75
		c0.05,0.74-0.02,1.58-0.2,2.52c-0.13,0.65-0.29,1.3-0.49,1.97c0.2,0.17,0.41,0.33,0.63,0.47c0.53,0.33,1.14,0.51,1.83,0.54
		c-0.41-1.02-0.69-2.02-0.86-2.98c-0.17-0.97-0.23-1.87-0.18-2.7c0.05-0.83,0.2-1.59,0.46-2.26c0.26-0.67,0.61-1.22,1.06-1.64
		c0.55-0.5,1.07-0.75,1.59-0.74c0.51,0.01,0.98,0.18,1.42,0.54c0.43,0.35,0.81,0.83,1.14,1.45c0.32,0.62,0.56,1.28,0.71,1.99
		c0.14,0.6,0.2,1.19,0.19,1.76c-0.02,0.57-0.12,1.11-0.32,1.62C26.7,14.49,26.4,14.97,26,15.43z"/>
	<path d="M17.27,11.66c0,0.01,0,0.03,0,0.04l0,0C17.28,11.69,17.27,11.67,17.27,11.66z"/>
	<path d="M16,15.97L16,15.97c0,0.02,0,0.04,0.01,0.05C16,16.01,16,15.99,16,15.97z"/>
</g>
</svg>
