<?xml version="1.0" encoding="utf-8"?>
<!-- Generator: Adobe Illustrator 25.0.0, SVG Export Plug-In . SVG Version: 6.00 Build 0)  -->
<svg version="1.1" id="Layer_1" xmlns="http://www.w3.org/2000/svg" xmlns:xlink="http://www.w3.org/1999/xlink" x="0px" y="0px"
	 viewBox="0 0 577.44 158.61" style="enable-background:new 0 0 577.44 158.61;" xml:space="preserve">
<style type="text/css">
	.st0{fill:#4EC4CE;}
</style>
<g>
	<path d="M85.66,42.78c-0.54-1.43-0.74-3.25-0.61-5.45c0.13-2.2,0.56-4.28,1.28-6.26c0.72-1.97,1.75-3.61,3.09-4.91
		c1.35-1.3,2.96-1.82,4.84-1.55c3.77-0.09,6.59,1.26,8.48,4.04c1.88,2.78,2.98,6.53,3.3,11.23c0.31,4.71-0.11,10.09-1.28,16.15
		c-1.17,6.05-2.87,12.27-5.11,18.64c-2.24,6.37-4.96,12.63-8.14,18.77c-3.19,6.15-6.66,11.66-10.43,16.55
		c-3.77,4.89-7.76,8.86-11.98,11.91c-4.22,3.05-8.48,4.71-12.78,4.98c-4.13,0.18-7.49-0.94-10.09-3.36
		c-2.6-2.42-4.64-5.74-6.12-9.96c-1.48-4.22-2.54-9.13-3.16-14.73c-0.63-5.61-1.03-11.44-1.21-17.49c-0.18-6.06-0.2-12.15-0.07-18.3
		c0.13-6.14,0.18-11.86,0.13-17.16c-0.05-5.29-0.25-9.98-0.61-14.06c-0.36-4.08-1.12-7.11-2.29-9.08h-0.13
		c-6.55,2.69-11.37,6.86-14.46,12.51c-3.09,5.65-5.09,12.51-5.99,20.59c-0.54,5.29-0.49,9.73,0.13,13.32
		c0.63,3.59,1.57,6.59,2.83,9.02c1.26,2.42,2.67,4.28,4.24,5.58c1.57,1.3,3.05,2.27,4.44,2.89c1.39,0.63,2.53,1.01,3.43,1.14
		c0.9,0.13,1.3,0.2,1.21,0.2c0.45,0,0.65,0.36,0.61,1.08c-0.05,0.72-0.47,1.35-1.28,1.88c-1.97-0.27-3.95-0.94-5.92-2.02
		c-1.7-0.99-3.5-2.44-5.38-4.37c-1.88-1.93-3.59-4.69-5.11-8.27c-0.81-2.06-1.46-4.93-1.95-8.61C9.08,64,9.01,59.92,9.37,55.43
		c0.27-3.5,0.92-7.11,1.95-10.83c1.03-3.72,2.51-7.27,4.44-10.63c1.93-3.36,4.42-6.41,7.47-9.15c3.05-2.74,6.73-4.82,11.03-6.26
		c6.1-0.9,10.76,2.54,13.99,10.29c3.23,7.76,2.96,26.26-0.81,55.5c-5.2,27.45-2.51,40.81,8.07,40.1c3.23,0.09,6.37-1.03,9.42-3.36
		c3.05-2.33,5.94-5.45,8.68-9.35c2.74-3.9,5.29-8.41,7.67-13.52c2.38-5.11,4.48-10.47,6.32-16.08c1.84-5.6,3.41-11.24,4.71-16.89
		c1.3-5.65,2.26-10.94,2.89-15.88c0.63-4.93,0.87-9.33,0.74-13.19c-0.13-3.86-0.74-6.77-1.82-8.75c-0.45-0.9-1.06-0.99-1.82-0.27
		c-0.76,0.72-1.44,1.84-2.02,3.36c-0.58,1.53-1.03,3.3-1.35,5.31c-0.32,2.02-0.25,3.88,0.2,5.58L85.66,42.78z"/>
	<path d="M127.1,63.64c-0.72-0.8-0.72-1.79,0-2.96c1.26-1.25,1.86-2.69,1.82-4.3c-0.05-1.62-0.65-3.01-1.82-4.17
		c-1.25-1.26-2.71-1.91-4.37-1.95c-1.66-0.05-3.12,0.56-4.37,1.81c-0.72,0.72-1.21,1.57-1.48,2.56s-0.32,1.97-0.14,2.96
		c0.63,2.6,1.86,4.93,3.7,7c1.84,2.06,4.06,3.32,6.66,3.76c0.36-0.09,0.68-0.22,0.95-0.4c0.53-0.36,0.71-0.94,0.53-1.75
		C128.32,65.3,127.82,64.45,127.1,63.64z"/>
	<path d="M241.07,85.04c-0.08-0.39-0.16-0.78-0.23-1.17c-2.04,4.17-4.39,7.7-7.04,10.59c-3.05,3.32-6.03,5.94-8.95,7.87
		c-2.91,1.93-5.51,3.27-7.8,4.03c-2.29,0.77-3.75,1.1-4.37,1.01c-1.98-0.27-3.37-1.21-4.17-2.82c-0.81-1.62-1.26-3.55-1.35-5.79
		c-0.09-2.24,0.13-4.64,0.67-7.2c0.54-2.55,1.21-4.91,2.02-7.06c2.15-1.08,3.95-2.11,5.38-3.1c1.44-0.98,2.92-2.15,4.44-3.49
		c1.53-1.35,2.78-2.81,3.77-4.38s1.53-3.2,1.62-4.91c0.08-1.7-0.59-3.41-2.02-5.11c-1.08-1.35-2.67-1.91-4.78-1.68
		c-2.11,0.22-4.33,1.12-6.66,2.69c-2.33,1.57-4.53,3.7-6.59,6.39c-2.07,2.69-3.64,5.79-4.71,9.28c-0.39,1.31-0.71,2.64-0.96,4.01
		c-0.87,0.37-1.76,0.79-2.67,1.24c-1.8,0.81-3.79,1.77-5.99,2.89c-2.2,1.13-4.47,2.4-6.8,3.84c-0.53-3.14-2.15-5.52-4.84-7.13
		c-2.51-1.53-4.76-1.91-6.73-1.15c-1.97,0.77-3.7,2.16-5.18,4.18c-1.48,2.01-2.74,4.37-3.77,7.06c-1.03,2.69-1.86,5.16-2.48,7.4
		c-0.19-3.05-0.27-6.53-0.27-10.43V79.66c0.8-1.53,2.22-4.4,4.23-8.62c2.02-4.21,4.2-9.06,6.53-14.53
		c2.33-5.47,4.53-11.19,6.59-17.15c2.07-5.97,3.5-11.46,4.31-16.49c0.81-5.02,0.72-9.19-0.27-12.51s-3.32-5.07-7-5.25
		c-2.96-0.18-5.6,1.19-7.94,4.11c-2.33,2.91-4.44,6.84-6.32,11.77s-3.5,10.61-4.84,17.02c-1.35,6.42-2.49,13.03-3.43,19.85
		c-0.95,6.82-1.64,13.57-2.09,20.25c-0.1,1.49-0.19,2.96-0.27,4.39c-2.37,4.76-4.7,9.15-6.99,13.17c-1.08,1.88-2.2,3.76-3.37,5.65
		c-1.16,1.88-2.35,3.63-3.56,5.25c-1.21,1.61-2.4,3.02-3.57,4.23s-2.24,2.09-3.23,2.63c-1.7,0.9-2.89,1.05-3.56,0.47
		c-0.68-0.58-1.01-1.7-1.01-3.36c0-1.66,0.2-3.75,0.6-6.26c0.41-2.51,0.88-5.23,1.41-8.14c0.54-2.92,0.99-5.94,1.35-9.08
		s0.49-6.19,0.4-9.15c-0.18-1.53-0.89-2.63-2.15-3.3s-2.56-1.14-3.9-1.41c-1.62-0.36-3.41-0.45-5.38-0.27
		c-1.8,7.35-2.87,14.13-3.23,20.32c-0.18,2.6-0.2,5.22-0.07,7.87c0.13,2.64,0.52,5.11,1.14,7.4c0.63,2.28,1.57,4.26,2.83,5.92
		c1.25,1.66,2.91,2.85,4.98,3.56c1.52,0.54,3.14,0.47,4.84-0.2s3.43-1.77,5.18-3.3c1.75-1.52,3.45-3.36,5.12-5.51
		c1.65-2.15,3.25-4.4,4.77-6.73c2.36-3.6,4.7-7.56,7.02-11.9c-0.07,2.07-0.13,4.06-0.16,5.98c0,1.53,0.07,3.18,0.2,4.98
		c0.14,1.79,0.39,3.52,0.74,5.18c0.36,1.66,0.86,3.12,1.48,4.37c0.63,1.26,1.44,2.15,2.43,2.69c1.43,0.72,2.73,0.86,3.9,0.41
		l1.75-0.81c0.36-0.18,0.62-0.49,0.81-0.94v-1.08l0.13,0.13c1.08-5.11,2.24-9.5,3.5-13.18c0.54-1.62,1.12-3.12,1.75-4.51
		c0.62-1.39,1.28-2.58,1.95-3.56c0.67-0.99,1.39-1.69,2.15-2.09s1.5-0.34,2.22,0.2c0.99,0.81,1.57,2.2,1.75,4.17
		c0.18,1.98,0.09,4.22-0.27,6.73c-1.97,1.71-3.75,3.45-5.31,5.25c-1.57,1.79-2.72,3.63-3.43,5.52c-1.26,2.69-1.55,5.11-0.88,7.26
		c0.67,2.15,2.17,3.32,4.51,3.5c1.88,0.27,3.81-0.43,5.78-2.09c1.98-1.66,3.7-3.79,5.18-6.39c1.48-2.6,2.65-5.47,3.5-8.61
		c0.85-3.14,1.15-6.14,0.88-9.01c2.24-1.35,4.48-2.6,6.72-3.77c2.25-1.17,4.26-2.2,6.06-3.1c0.64-0.29,1.26-0.57,1.87-0.84
		c-0.04,0.35-0.08,0.7-0.12,1.05c-0.27,2.64-0.25,5.22,0.07,7.73c0.31,2.52,0.96,4.85,1.95,7c0.98,2.15,2.37,3.9,4.17,5.25
		c0.71,0.45,1.63,0.94,2.76,1.48c1.12,0.54,2.53,0.8,4.23,0.8c3.86,0,7.47-0.87,10.84-2.62c3.36-1.75,6.41-3.99,9.15-6.73
		c2.73-2.73,5.09-5.72,7.06-8.94c0.96-1.57,1.82-3.11,2.56-4.62v-0.01C241.4,86.44,241.22,85.74,241.07,85.04z M213.22,76.96
		c2.42-4.12,4.52-6.74,6.32-7.87c1.79-1.12,2.78-1.5,2.96-1.14c0.45,0.99,0.31,2.11-0.4,3.36c-0.72,1.26-1.73,2.49-3.03,3.7
		c-1.3,1.21-2.67,2.36-4.11,3.43c-1.43,1.08-2.69,1.93-3.76,2.56L213.22,76.96z M161.68,54.63c0.45-6.46,1.12-12.2,2.02-17.22
		c1.17-6.28,2.36-11.46,3.57-15.54c1.21-4.09,2.37-7.27,3.49-9.56c1.13-2.29,2.22-3.77,3.3-4.44s2.15-0.83,3.23-0.47
		c1.08,0.45,1.93,1.37,2.56,2.76c0.62,1.39,0.8,3.61,0.54,6.66c-0.27,3.05-1.1,7.11-2.49,12.18c-1.4,5.07-3.57,11.46-6.53,19.17
		c-2.51,6.64-4.62,12.04-6.32,16.21c-1.71,4.17-3.14,7.43-4.31,9.76C160.92,67.59,161.23,61.09,161.68,54.63z M171.71,108.31
		c-0.59,1.89-1.17,3.57-1.75,5.05c-0.59,1.48-1.15,2.65-1.68,3.5c-0.54,0.85-0.99,1.28-1.35,1.28c-1.17-0.36-1.5-1.8-1.01-4.31
		c0.49-2.51,2.31-5.65,5.45-9.42c0.27-0.35,0.56-0.67,0.87-0.94c0.32-0.27,0.65-0.58,1.01-0.94
		C172.8,104.5,172.29,106.43,171.71,108.31z"/>
	<path class="st0" d="M282.64,81.94c-1.34,1.71-3.14,3.68-5.38,5.92c-1.88,1.89-4.33,4.11-7.33,6.66
		c-3.01,2.56-6.66,5.41-10.97,8.55l-1.48-3.77c-1.79-3.86-3.41-7.22-4.84-10.09c-1.44-2.87-2.6-6.01-3.5-9.42
		c2.06-1.88,4.12-4.24,6.19-7.06c2.06-2.83,3.85-5.79,5.38-8.88c1.52-3.1,2.74-6.13,3.63-9.09c0.9-2.96,1.21-5.56,0.95-7.8
		c-0.18-2.06-1.22-3.34-3.1-3.84c-1.88-0.49-4.08-0.11-6.59,1.15c-2.51,1.26-5.07,3.41-7.67,6.46c-2.6,3.05-4.71,7.13-6.33,12.24
		c-0.98,3.23-1.54,6.35-1.68,9.35c-0.13,3.01,0.03,5.95,0.47,8.82v0.13c0.12,0.87,0.27,1.73,0.45,2.6c0.07,0.39,0.15,0.78,0.23,1.17
		c0.15,0.7,0.33,1.4,0.54,2.1v0.01c0.15,0.55,0.33,1.1,0.53,1.65c0.63,2.34,1.48,5.12,2.56,8.35c1.08,3.23,2.42,6.72,4.04,10.49
		l0.67,1.62c-1.17,0.72-2.34,1.41-3.5,2.08c-1.17,0.67-2.38,1.37-3.63,2.09c-4.58,2.6-8.16,5.34-10.77,8.21
		c-2.6,2.86-4.35,5.67-5.24,8.41c-0.9,2.73-1.06,5.29-0.48,7.66c0.59,2.38,1.73,4.35,3.44,5.92c1.7,1.57,3.92,2.65,6.66,3.23
		c2.73,0.59,5.76,0.43,9.08-0.47c4.39-1.16,7.85-3.21,10.36-6.12c2.51-2.92,4.28-6.28,5.31-10.09c1.03-3.81,1.44-7.85,1.21-12.11
		c-0.22-4.26-0.87-8.27-1.95-12.04c4.85-3.41,8.91-6.6,12.18-9.56c3.27-2.96,5.94-5.56,8.01-7.8c2.33-2.51,4.21-4.84,5.65-7
		L282.64,81.94z M247.93,76.02c-0.45-2.33-0.63-4.82-0.54-7.47c0.09-2.64,0.36-4.86,0.81-6.66c0.89-3.67,2.04-6.66,3.43-8.94
		c1.39-2.29,2.78-3.95,4.17-4.98c1.39-1.03,2.67-1.41,3.83-1.15c1.17,0.27,1.98,1.08,2.43,2.43c0.35,1.25,0.22,2.96-0.41,5.11
		s-1.59,4.51-2.89,7.06c-1.3,2.56-2.89,5.12-4.78,7.67C252.1,71.65,250.08,73.96,247.93,76.02z M252.77,130.11
		c-0.54,4.04-1.88,7.45-4.03,10.23c-2.16,2.78-5.52,4.08-10.1,3.9c-3.94-0.18-6.61-1.35-8-3.5s-1.73-4.73-1.01-7.74
		c0.72-3,2.42-6.1,5.11-9.28s6.1-5.94,10.23-8.27c0.98-0.54,1.93-1.08,2.82-1.62c0.9-0.54,1.8-1.07,2.69-1.61
		c0.99,3.23,1.66,6.37,2.02,9.42C252.86,124.68,252.95,127.51,252.77,130.11z"/>
	<path class="st0" d="M311.71,120.69c0.18,4.39,0.45,8.99,0.81,13.79c0.36,4.8,0.85,10.25,1.48,16.35
		c-2.51,0.72-5.92,1.35-10.23,1.88c-4.31,0.54-8.3,0.81-11.98,0.81c-1.44-10.23-2.62-22.76-3.57-37.61
		c-0.94-14.84-1.41-28.59-1.41-41.24c0-5.29,0.09-10.04,0.27-14.26c0.18-4.22,0.49-8.39,0.94-12.51c2.06-1.08,4.89-1.93,8.48-2.56
		c3.59-0.63,7.31-0.94,11.17-0.94c1.52,0,2.91,0.07,4.17,0.2c1.26,0.13,2.74,0.43,4.44,0.87c-0.36,1.08-0.67,2.35-0.94,3.83
		c-0.27,1.48-0.58,3.48-0.94,5.99c2.6-3.41,5.45-5.96,8.54-7.67c3.09-1.7,6.44-2.56,10.02-2.56c6.19,0,11.05,2.31,14.6,6.93
		c3.54,4.62,5.31,11.01,5.31,19.17c0,14.71-3.48,26.66-10.43,35.86c-6.95,9.2-15.81,13.79-26.57,13.79c-1.17,0-2.04,0-2.62,0
		C312.67,120.82,312.15,120.78,311.71,120.69z M311.44,105.22c0.72,0.36,1.41,0.63,2.09,0.81c0.67,0.18,1.37,0.27,2.08,0.27
		c2.96,0,5.45-3.05,7.47-9.15c2.02-6.1,3.03-13.81,3.03-23.14c0-3.41-0.43-5.9-1.28-7.47c-0.85-1.57-2.13-2.35-3.83-2.35
		c-1.8,0-3.41,0.83-4.84,2.49c-1.44,1.66-2.65,4.1-3.63,7.33c-0.27,4.22-0.49,8.86-0.67,13.93C311.66,93,311.52,98.76,311.44,105.22
		z"/>
	<path class="st0" d="M425,74c0,5.65-0.76,13.34-2.29,23.08c-1.53,9.73-3.5,19.76-5.92,30.07c-3.14,0-6.5-0.2-10.09-0.61
		c-3.59-0.4-7.09-0.97-10.5-1.68c0.18-1.53,0.31-2.69,0.4-3.5c0.09-0.81,0.18-1.52,0.27-2.15c-1.88,0.81-3.95,1.44-6.19,1.88
		c-2.24,0.45-4.67,0.67-7.27,0.67c-7.45,0-13.41-1.86-17.9-5.58c-4.49-3.72-6.73-8.72-6.73-15c0-6.37,2.58-11.14,7.74-14.33
		c5.16-3.18,12.94-4.78,23.34-4.78c3.41,0,5.7,0,6.86,0c1.17,0,2.11,0.05,2.83,0.13c-0.09-8.43-0.63-14.17-1.62-17.22
		c-0.99-3.05-2.6-4.57-4.84-4.57c-2.15,0-4.02,1.46-5.58,4.37c-1.57,2.92-2.4,6.62-2.49,11.1c-5.74,0-10.52-1.08-14.33-3.23
		c-3.81-2.15-6.44-5.25-7.87-9.28c1.7-4.66,5.56-8.66,11.57-11.98c6.01-3.32,12.96-4.98,20.86-4.98c9.78,0,17.18,2.33,22.2,7
		C422.48,58.08,425,64.94,425,74z M385.57,103.06c0,2.06,0.54,3.66,1.62,4.78c1.08,1.12,2.64,1.68,4.71,1.68
		c1.25,0,2.38-0.13,3.36-0.4c0.99-0.27,1.97-0.67,2.96-1.21c0.36-3.14,0.61-5.85,0.74-8.14c0.13-2.29,0.25-4.37,0.34-6.26
		c-4.67,0.27-8.12,1.17-10.36,2.69C386.69,97.73,385.57,100.01,385.57,103.06z"/>
	<path class="st0" d="M498.73,72.12c-2.87,1.35-6.17,2.35-9.89,3.03c-3.72,0.67-8.19,1.01-13.39,1.01c0-4.75-0.43-8.27-1.28-10.56
		c-0.85-2.29-2.18-3.43-3.97-3.43c-2.6,0-4.89,3.25-6.86,9.75c-1.97,6.5-2.96,13.84-2.96,22c0,5.2,0.67,9.28,2.02,12.24
		c1.35,2.96,3.23,4.44,5.65,4.44c2.15,0,4.35-0.88,6.59-2.62c2.24-1.75,5.16-5.22,8.75-10.43c2.6,0.45,5.16,1.53,7.67,3.23
		c2.51,1.71,4.57,3.72,6.19,6.06c-0.72,2.33-2.38,4.84-4.98,7.53c-2.6,2.69-5.7,4.93-9.28,6.73c-2.87,1.43-5.99,2.53-9.35,3.3
		c-3.36,0.76-6.88,1.14-10.56,1.14c-9.33,0-16.62-2.78-21.86-8.34c-5.25-5.56-7.87-13.01-7.87-22.34c0-5.47,0.9-10.94,2.69-16.42
		c1.79-5.47,4.35-10.31,7.67-14.53c3.59-4.84,7.8-8.52,12.65-11.03c4.84-2.51,10.09-3.77,15.74-3.77c8.43,0,14.98,2.04,19.64,6.12
		C496.4,59.31,498.73,64.94,498.73,72.12z"/>
	<path class="st0" d="M548.92,96.34c3.41,0.63,6.88,1.86,10.43,3.7c3.54,1.84,6.44,3.92,8.68,6.26c-0.72,2.33-2.38,4.84-4.98,7.53
		c-2.6,2.69-5.7,4.93-9.28,6.73c-2.87,1.44-5.99,2.53-9.35,3.3c-3.36,0.76-6.89,1.14-10.56,1.14c-9.33,0-16.62-2.71-21.86-8.14
		c-5.25-5.43-7.87-12.8-7.87-22.13c0-5.83,0.92-11.55,2.76-17.15c1.84-5.6,4.46-10.7,7.87-15.27c3.86-5.11,8.3-9.1,13.32-11.98
		c5.02-2.87,10.18-4.31,15.47-4.31c7.54,0,13.54,1.91,18.03,5.72c4.48,3.81,6.73,8.9,6.73,15.27c0,2.87-0.29,6.03-0.87,9.49
		c-0.58,3.45-1.33,6.44-2.22,8.95c-2.78,1.35-6.21,2.35-10.29,3.03c-4.08,0.67-8.95,1.01-14.6,1.01c-1.62,0-3.21-0.09-4.78-0.27
		c-1.57-0.18-3.12-0.4-4.64-0.67c-0.09,0.54-0.13,1.14-0.13,1.82s0,1.68,0,3.03c0,5.38,0.69,9.51,2.09,12.38
		c1.39,2.87,3.38,4.31,5.99,4.31c1.7,0,3.54-1.39,5.52-4.17C546.32,103.11,547.84,99.93,548.92,96.34z M532.64,75.62
		c1.08,0.27,2.13,0.47,3.16,0.61c1.03,0.13,1.9,0.2,2.62,0.2c0.72,0,1.55-0.02,2.49-0.07c0.94-0.04,1.59-0.11,1.95-0.2
		c0.54-2.15,0.96-4.17,1.28-6.05c0.31-1.88,0.47-3.59,0.47-5.11c0-1.88-0.25-3.27-0.74-4.17c-0.49-0.9-1.23-1.35-2.22-1.35
		c-1.8,0-3.5,1.46-5.11,4.37C534.92,66.76,533.62,70.68,532.64,75.62z"/>
</g>
</svg>
